<?xml version="1.0" encoding="UTF-8"?>
<svg width="1200" height="1400" viewBox="0 0 1200 1400" fill="none" xmlns="http://www.w3.org/2000/svg">
  <defs>
    <linearGradient id="blueGrad" x1="100" y1="120" x2="420" y2="460" gradientUnits="userSpaceOnUse">
      <stop offset="0%" stop-color="#1E63FF"/>
      <stop offset="100%" stop-color="#173BFF"/>
    </linearGradient>

    <linearGradient id="orangeGrad" x1="360" y1="120" x2="650" y2="460" gradientUnits="userSpaceOnUse">
      <stop offset="0%" stop-color="#FF7A1A"/>
      <stop offset="100%" stop-color="#FF9D1A"/>
    </linearGradient>

    <linearGradient id="cloudGrad" x1="520" y1="260" x2="760" y2="500" gradientUnits="userSpaceOnUse">
      <stop offset="0%" stop-color="#1E63FF"/>
      <stop offset="50%" stop-color="#4D6CFF"/>
      <stop offset="100%" stop-color="#FF7A1A"/>
    </linearGradient>
  </defs>

  <!-- Logo group -->
  <g transform="translate(0, 70)">
    <path d="M130 220 H290 L250 260 H200 V400 Q200 450 155 450 H100 L80 420 H130 Q155 420 155 390 V260 H100 Z"
          fill="url(#blueGrad)"/>
    <path d="M310 220 H440 Q530 220 570 280 Q610 340 570 400 Q530 460 440 460 H380 L400 420 H440 Q495 420 520 380 Q545 340 520 300 Q495 260 440 260 H330 Z"
          fill="url(#orangeGrad)"/>

    <text x="245" y="360"
          font-size="58"
          font-family="Arial, sans-serif"
          fill="#0F1E4D"
          font-weight="700">&lt;/&gt;</text>

    <text x="660" y="365"
          font-size="200"
          font-family="Montserrat, Arial, sans-serif"
          fill="#0F1E4D"
          font-weight="700"
          letter-spacing="6">M</text>

    <path d="M870 340
             C850 290 890 250 940 260
             C960 220 1020 220 1040 265
             C1090 260 1120 300 1110 340
             C1100 380 1060 400 1010 400
             H910
             C860 400 830 370 870 340 Z"
          stroke="url(#cloudGrad)"
          stroke-width="14"
          fill="none"/>

    <text x="915" y="362"
          font-size="56"
          font-family="Arial, sans-serif"
          fill="#0F1E4D"
          font-weight="700">&lt;/&gt;</text>

    <text x="1125" y="365"
          font-size="200"
          font-family="Montserrat, Arial, sans-serif"
          fill="#0F1E4D"
          font-weight="700"
          letter-spacing="6">NKS</text>
  </g>

  <!-- Tagline -->
  <g transform="translate(0, 890)">
    <text x="220" y="0"
          font-size="44"
          font-family="Montserrat, Arial, sans-serif"
          fill="#1E63FF"
          letter-spacing="10"
          font-weight="600">INNOVATE</text>

    <text x="530" y="0"
          font-size="44"
          font-family="Montserrat, Arial, sans-serif"
          fill="#0F1E4D"
          font-weight="600">|</text>

    <text x="610" y="0"
          font-size="44"
          font-family="Montserrat, Arial, sans-serif"
          fill="#FF7A1A"
          letter-spacing="10"
          font-weight="600">BUILD</text>

    <text x="815" y="0"
          font-size="44"
          font-family="Montserrat, Arial, sans-serif"
          fill="#0F1E4D"
          font-weight="600">|</text>

    <text x="895" y="0"
          font-size="44"
          font-family="Montserrat, Arial, sans-serif"
          fill="#1E63FF"
          letter-spacing="10"
          font-weight="600">DELIVER</text>
  </g>
</svg>
