<?xml version="1.0" encoding="UTF-8"?>
<svg width="1600" height="500" viewBox="0 0 1600 500" fill="none" xmlns="http://www.w3.org/2000/svg">
  <defs>
    <linearGradient id="blueGrad" x1="0" y1="0" x2="1" y2="1">
      <stop offset="0%" stop-color="#1E63FF"/>
      <stop offset="100%" stop-color="#173BFF"/>
    </linearGradient>

    <linearGradient id="orangeGrad" x1="0" y1="0" x2="1" y2="1">
      <stop offset="0%" stop-color="#FF7A1A"/>
      <stop offset="100%" stop-color="#FF9D1A"/>
    </linearGradient>

    <linearGradient id="cloudGrad" x1="0" y1="0" x2="1" y2="1">
      <stop offset="0%" stop-color="#1E63FF"/>
      <stop offset="50%" stop-color="#4D6CFF"/>
      <stop offset="100%" stop-color="#FF7A1A"/>
    </linearGradient>
  </defs>

  <!-- JP -->
  <path d="M120 130 H280 L240 170 H190 V310 Q190 360 145 360 H90 L70 330 H120 Q145 330 145 300 V170 H90 Z"
        fill="url(#blueGrad)"/>

  <path d="M300 130 H430 Q520 130 560 190 Q600 250 560 310 Q520 370 430 370 H370 L390 330 H430 Q485 330 510 290 Q535 250 510 210 Q485 170 430 170 H320 Z"
        fill="url(#orangeGrad)"/>

  <!-- Code Symbol -->
  <text x="250" y="260"
        font-size="58"
        font-family="Arial, sans-serif"
        fill="#0F1E4D"
        font-weight="700">&lt;/&gt;</text>

  <!-- MONKS -->
  <text x="700" y="290"
        font-size="170"
        font-family="Montserrat, Arial, sans-serif"
        fill="#0F1E4D"
        font-weight="700"
        letter-spacing="6">M</text>

  <!-- Cloud -->
  <path d="M940 260
           C920 210 960 170 1010 180
           C1030 140 1090 140 1110 185
           C1160 180 1190 220 1180 260
           C1170 300 1130 320 1080 320
           H980
           C930 320 900 290 940 260 Z"
        stroke="url(#cloudGrad)"
        stroke-width="14"
        fill="none"/>

  <text x="985" y="282"
        font-size="56"
        font-family="Arial, sans-serif"
        fill="#0F1E4D"
        font-weight="700">&lt;/&gt;</text>

  <text x="1180" y="290"
        font-size="170"
        font-family="Montserrat, Arial, sans-serif"
        fill="#0F1E4D"
        font-weight="700"
        letter-spacing="6">NKS</text>

  <!-- Tagline -->
  <text x="330" y="430"
        font-size="42"
        font-family="Montserrat, Arial, sans-serif"
        fill="#1E63FF"
        letter-spacing="10"
        font-weight="600">INNOVATE</text>

  <text x="720" y="430"
        font-size="42"
        font-family="Montserrat, Arial, sans-serif"
        fill="#0F1E4D"
        font-weight="600">|</text>

  <text x="790" y="430"
        font-size="42"
        font-family="Montserrat, Arial, sans-serif"
        fill="#FF7A1A"
        letter-spacing="10"
        font-weight="600">BUILD</text>

  <text x="1070" y="430"
        font-size="42"
        font-family="Montserrat, Arial, sans-serif"
        fill="#0F1E4D"
        font-weight="600">|</text>

  <text x="1140" y="430"
        font-size="42"
        font-family="Montserrat, Arial, sans-serif"
        fill="#1E63FF"
        letter-spacing="10"
        font-weight="600">DELIVER</text>
</svg>
