<?xml version="1.0" encoding="UTF-8"?>
<svg width="512" height="512" viewBox="0 0 512 512" fill="none" xmlns="http://www.w3.org/2000/svg">
  <defs>
    <linearGradient id="g1" x1="80" y1="80" x2="430" y2="430" gradientUnits="userSpaceOnUse">
      <stop offset="0%" stop-color="#1E63FF"/>
      <stop offset="55%" stop-color="#4D6CFF"/>
      <stop offset="100%" stop-color="#FF7A1A"/>
    </linearGradient>

    <linearGradient id="g2" x1="100" y1="100" x2="380" y2="380" gradientUnits="userSpaceOnUse">
      <stop offset="0%" stop-color="#FF7A1A"/>
      <stop offset="100%" stop-color="#FF9D1A"/>
    </linearGradient>
  </defs>

  <rect width="512" height="512" rx="96" fill="#0F1E4D"/>

  <!-- JP mark -->
  <path d="M86 130 H182 L160 158 H122 V282 Q122 320 88 320 H58 L46 300 H82 Q98 300 98 284 V158 H58 Z"
        fill="url(#g1)"/>
  <path d="M196 130 H277 Q337 130 363 170 Q389 210 363 250 Q337 290 277 290 H244 L254 260 H277 Q311 260 326 236 Q341 210 326 186 Q311 162 277 162 H213 Z"
        fill="url(#g2)"/>

  <text x="154" y="222"
        font-size="34"
        font-family="Arial, sans-serif"
        fill="#FFFFFF"
        font-weight="700">&lt;/&gt;</text>

  <!-- Cloud code mark -->
  <path d="M195 360
           C180 320 210 290 252 295
           C266 265 310 265 323 296
           C364 294 389 324 383 360
           C378 394 346 410 308 410
           H228
           C190 410 170 390 195 360 Z"
        stroke="url(#g1)"
        stroke-width="12"
        fill="none"/>

  <text x="238" y="383"
        font-size="30"
        font-family="Arial, sans-serif"
        fill="#FFFFFF"
        font-weight="700">&lt;/&gt;</text>
</svg>
